<?xml version="1.0" standalone="no"?>
<!DOCTYPE svg PUBLIC "-//W3C//DTD SVG 20010904//EN"
 "http://www.w3.org/TR/2001/REC-SVG-20010904/DTD/svg10.dtd">
<svg version="1.0" xmlns="http://www.w3.org/2000/svg"
 width="1943.000000pt" height="1956.000000pt" viewBox="0 0 1943.000000 1956.000000"
 preserveAspectRatio="xMidYMid meet">

<g transform="translate(0.000000,1956.000000) scale(0.100000,-0.100000)"
fill="#000000" stroke="none">
<path d="M7237 18773 c-23 -2 -35 -8 -31 -15 13 -20 -23 -28 -126 -28 -201 2
-198 2 -205 -21 -7 -21 -12 -22 -94 -16 -98 6 -141 1 -141 -18 0 -19 -26 -24
-104 -20 -76 4 -96 -1 -96 -20 0 -18 -42 -26 -121 -23 -51 2 -71 -1 -86 -14
-12 -11 -43 -19 -92 -22 -51 -4 -77 -10 -85 -21 -8 -11 -30 -17 -67 -18 -35
-2 -62 -8 -72 -18 -9 -9 -42 -19 -78 -22 -39 -5 -66 -13 -73 -23 -10 -14 -28
-18 -88 -23 -20 -2 -4 -35 32 -70 22 -21 40 -42 40 -45 0 -4 16 -24 35 -44 19
-20 35 -43 35 -50 0 -7 15 -27 33 -45 17 -17 39 -45 47 -62 8 -16 20 -37 27
-45 8 -8 25 -28 38 -43 14 -15 25 -34 25 -41 0 -13 41 -36 65 -36 8 0 21 10
30 23 12 17 26 22 63 24 70 2 69 2 87 20 12 11 38 18 84 20 54 3 69 7 83 25
15 20 26 23 100 23 83 0 83 0 86 27 3 26 5 27 50 22 26 -3 62 -10 79 -14 42
-11 73 -2 100 27 12 12 31 23 42 23 14 0 19 5 15 15 -7 17 -34 21 -34 5 0 -5
-6 -10 -14 -10 -8 0 -16 -7 -20 -15 -3 -8 -17 -15 -31 -15 -16 0 -25 6 -25 15
0 8 6 15 14 15 8 0 18 9 21 20 3 11 13 20 21 20 8 0 14 9 14 20 0 11 -7 20
-15 20 -8 0 -15 9 -15 20 0 13 7 20 20 20 11 0 20 -4 20 -10 0 -5 9 -10 20
-10 16 0 20 7 20 30 0 23 4 30 20 30 15 0 22 -9 27 -30 7 -39 23 -39 23 0 0
27 4 30 40 36 43 7 52 19 20 29 -11 3 -20 15 -20 26 0 12 7 19 20 19 13 0 20
7 20 20 0 13 7 20 20 20 13 0 20 7 20 20 0 24 32 27 50 5 11 -13 8 -20 -20
-45 -19 -17 -37 -30 -42 -30 -15 0 -8 -21 17 -45 13 -14 27 -25 30 -25 3 0 5
18 5 40 0 33 3 40 20 40 17 0 20 7 20 48 0 36 -5 51 -20 62 -24 17 -27 50 -5
50 9 0 31 -16 50 -36 28 -28 35 -44 35 -75 0 -21 5 -39 10 -39 6 0 10 16 10
35 0 29 4 35 23 36 l22 0 -23 9 c-12 5 -25 18 -29 27 -8 20 -17 32 -50 68 -13
13 -23 31 -23 40 0 26 29 17 64 -20 19 -19 43 -35 54 -35 13 0 22 -9 26 -25 4
-16 13 -25 26 -25 32 0 23 19 -35 75 -30 29 -55 60 -55 69 0 23 33 20 50 -4
19 -27 30 -25 30 5 0 34 40 34 76 -1 21 -22 28 -24 35 -13 5 8 9 17 9 22 0 4
7 7 15 7 17 0 20 16 5 25 -6 4 -8 11 -5 16 4 5 -9 9 -27 9 -18 0 -55 2 -83 4
-27 2 -67 2 -88 -1z m-127 -108 c10 -12 10 -18 0 -30 -23 -28 -50 -12 -50 31
0 19 34 18 50 -1z m-40 -80 c10 -12 6 -21 -24 -50 -40 -39 -51 -42 -60 -19
-11 29 -6 44 14 44 13 0 20 7 20 20 0 24 32 27 50 5z m-124 -79 c19 -19 18
-46 -2 -46 -23 0 -45 26 -38 44 8 20 21 20 40 2z m-509 -38 c-3 -8 -6 -5 -6 6
-1 11 2 17 5 13 3 -3 4 -12 1 -19z m473 -32 c0 -2 3 -11 6 -20 5 -12 0 -16
-20 -16 -19 0 -26 5 -26 20 0 13 7 20 20 20 11 0 20 -2 20 -4z m-197 -251 c4
-8 2 -17 -4 -21 -15 -9 -39 3 -39 21 0 19 36 20 43 0z"/>
<path d="M8520 18771 l-55 -7 75 -8 c90 -9 185 -5 185 9 0 12 -124 15 -205 6z"/>
<path d="M7503 18745 c14 -28 22 -31 31 -10 7 21 43 19 55 -2 9 -17 11 -17 23
-2 7 9 22 21 33 27 16 9 2 11 -67 12 l-86 0 11 -25z"/>
<path d="M8880 18730 c-13 -8 -11 -11 8 -16 12 -4 22 -10 22 -15 0 -13 37 -11
62 2 17 9 23 8 30 -5 11 -19 28 -21 28 -3 0 28 -36 47 -86 47 -27 0 -56 -5
-64 -10z"/>
<path d="M7550 18694 c0 -8 5 -12 10 -9 6 3 10 10 10 16 0 5 -4 9 -10 9 -5 0
-10 -7 -10 -16z"/>
<path d="M7478 18693 c7 -3 16 -2 19 1 4 3 -2 6 -13 5 -11 0 -14 -3 -6 -6z"/>
<path d="M7640 18690 c0 -5 5 -10 10 -10 6 0 10 5 10 10 0 6 -4 10 -10 10 -5
0 -10 -4 -10 -10z"/>
<path d="M9092 18691 c-11 -7 -11 -9 2 -14 21 -8 20 -26 -1 -43 -17 -13 -17
-15 0 -28 21 -16 22 -42 2 -50 -8 -3 -15 -14 -15 -25 0 -35 -12 -51 -37 -51
-32 0 -80 49 -85 86 -4 41 -32 38 -36 -4 -3 -26 1 -35 16 -39 11 -3 22 -13 25
-24 3 -10 12 -19 20 -19 9 0 17 -7 19 -17 4 -24 68 -25 68 0 0 12 8 17 25 17
23 0 25 4 25 40 0 33 3 40 20 40 17 0 20 -7 20 -40 0 -29 -4 -40 -15 -40 -15
0 -105 -88 -105 -103 0 -4 7 -10 15 -13 16 -7 21 -34 5 -34 -5 0 -13 6 -17 13
-4 8 -16 16 -25 20 -12 4 -18 17 -18 41 0 25 -5 35 -20 39 -11 3 -20 12 -20
21 0 23 -31 20 -37 -4 -3 -11 -11 -20 -19 -20 -7 0 -18 9 -24 20 -6 11 -17 20
-24 20 -8 0 -16 9 -19 20 -3 11 -12 20 -20 20 -8 0 -17 9 -20 20 -6 24 -23 26
-31 4 -4 -10 0 -18 13 -21 11 -3 21 -13 24 -24 3 -10 12 -19 20 -19 8 0 17 -9
20 -20 3 -11 12 -20 21 -20 12 0 16 -10 16 -36 0 -27 5 -37 19 -41 11 -3 21
-13 24 -24 3 -10 12 -19 21 -19 9 0 16 -7 16 -15 0 -8 -9 -15 -20 -15 -11 0
-20 7 -20 15 0 8 -7 15 -15 15 -9 0 -19 8 -22 18 -13 36 -43 37 -43 1 0 -12 7
-19 19 -19 10 0 21 -9 24 -20 3 -11 12 -20 21 -20 18 0 21 -15 6 -25 -6 -3
-17 1 -26 9 -19 20 -23 20 -44 1 -15 -14 -18 -14 -30 0 -10 13 -9 15 9 15 14
0 21 6 21 19 0 29 -26 33 -39 5 -6 -13 -17 -24 -26 -24 -8 0 -15 -7 -15 -15 0
-8 -6 -15 -14 -15 -24 0 -28 18 -6 30 14 8 20 21 20 45 0 37 -18 48 -27 16 -2
-10 -16 -24 -29 -30 -19 -8 -24 -18 -24 -46 0 -19 5 -36 10 -36 6 -1 24 -3 40
-5 44 -6 84 -7 195 -5 76 2 101 -1 110 -12 23 -32 56 -39 166 -36 99 3 110 2
123 -16 12 -17 29 -21 101 -24 69 -2 91 -7 106 -22 15 -15 34 -19 91 -19 60 0
76 -4 95 -22 17 -16 39 -23 86 -26 40 -3 70 -11 86 -23 15 -13 40 -19 71 -19
33 0 52 -5 64 -19 10 -11 38 -22 69 -26 29 -4 46 -9 40 -12 -19 -7 -16 -19 5
-20 37 -3 116 -21 95 -22 -12 0 -26 -7 -30 -14 -4 -8 -16 -16 -25 -20 -10 -3
-18 -13 -18 -21 0 -7 -9 -16 -20 -19 -12 -3 -20 -14 -20 -27 0 -20 -4 -22 -31
-16 -25 5 -32 2 -36 -13 -3 -11 -13 -21 -24 -24 -10 -3 -19 -12 -19 -20 0 -8
-9 -17 -20 -20 -12 -3 -20 -14 -20 -27 0 -19 -4 -21 -30 -15 -25 5 -35 1 -60
-23 -16 -17 -30 -37 -30 -46 0 -12 -7 -14 -30 -10 -24 5 -35 1 -60 -24 -16
-17 -30 -38 -30 -46 0 -12 -6 -15 -25 -10 -19 5 -32 -1 -55 -22 -16 -16 -30
-37 -30 -47 0 -15 -7 -17 -37 -15 -33 3 -38 0 -41 -20 -3 -20 -8 -22 -33 -17
-26 6 -36 1 -76 -39 -41 -42 -49 -46 -79 -40 -28 5 -38 1 -64 -24 -16 -17 -30
-37 -30 -46 0 -12 -7 -14 -30 -10 -26 6 -36 0 -84 -50 -52 -53 -57 -56 -110
-58 -47 -2 -56 -5 -58 -23 -3 -17 -10 -20 -43 -18 -48 2 -65 -10 -65 -48 0
-26 -4 -29 -30 -29 -19 0 -34 -7 -42 -20 -10 -15 -24 -20 -60 -20 -39 0 -50
-4 -63 -24 -21 -32 -40 -38 -70 -24 -29 13 -55 -3 -55 -34 0 -15 -3 -17 -19
-8 -35 18 -51 12 -51 -20 0 -30 -21 -42 -35 -20 -12 19 -45 11 -45 -10 0 -18
-6 -22 -26 -19 -4 0 -11 -5 -15 -13 -7 -10 -12 -11 -29 0 -34 21 -50 15 -50
-18 0 -30 -21 -42 -35 -20 -3 6 -15 10 -26 10 -15 0 -19 -7 -19 -36 0 -34 -1
-35 -22 -20 -12 9 -39 16 -60 16 -31 0 -38 -4 -38 -19 0 -24 -14 -29 -72 -25
-42 3 -48 1 -48 -16 0 -21 -1 -22 -72 -23 -38 -1 -48 -5 -48 -18 0 -19 -38
-29 -92 -23 -27 3 -40 0 -50 -13 -27 -37 -44 -44 -72 -32 -24 11 -29 9 -57
-19 -35 -36 -41 -37 -68 -20 -23 14 -51 -4 -51 -33 0 -20 -15 -25 -25 -9 -9
14 -82 13 -87 -1 -3 -9 -9 -9 -25 0 -33 17 -53 14 -53 -9 0 -13 -7 -20 -20
-20 -13 0 -20 -7 -20 -20 l0 -20 -20 20 c-11 11 -29 20 -40 20 -13 0 -20 -7
-20 -20 0 -18 -7 -20 -80 -20 -73 0 -80 -2 -80 -20 l0 -20 -20 20 c-11 11 -29
20 -40 20 -13 0 -20 -7 -20 -20 0 -17 -7 -20 -41 -20 -41 0 -41 0 -35 -31 3
-17 6 -52 6 -78 0 -29 3 -41 9 -33 11 18 21 -17 21 -75 0 -51 8 -73 26 -73 10
0 14 -15 14 -58 0 -35 6 -66 15 -79 8 -11 18 -54 21 -94 4 -41 12 -81 19 -89
7 -8 15 -52 18 -98 4 -45 12 -92 19 -105 7 -12 16 -62 19 -112 4 -49 12 -110
18 -135 7 -25 16 -108 21 -185 5 -77 14 -180 20 -230 7 -49 14 -209 16 -355
l4 -265 79 -80 c427 -433 965 -969 999 -996 24 -19 56 -44 70 -57 50 -43 263
-202 271 -202 4 0 16 -9 26 -20 10 -11 24 -20 30 -20 7 0 19 -7 26 -16 7 -9
22 -20 34 -26 11 -5 38 -20 60 -33 64 -38 235 -125 247 -125 5 0 21 -9 35 -20
14 -11 33 -20 42 -20 9 0 34 -9 56 -20 22 -11 49 -20 61 -20 12 0 27 -7 34
-15 7 -8 28 -17 49 -20 20 -3 50 -12 68 -20 18 -8 56 -17 85 -21 29 -4 64 -12
78 -19 14 -7 54 -16 90 -19 36 -4 95 -14 131 -23 94 -21 676 -15 729 9 19 8
70 18 114 22 43 4 88 13 100 20 11 8 45 17 75 20 29 4 63 13 75 21 11 7 41 16
65 20 25 4 50 13 57 20 7 7 33 16 58 19 24 4 50 14 56 21 7 8 19 15 27 15 14
0 114 42 143 61 8 5 26 14 40 19 14 6 32 14 40 19 8 6 44 25 80 43 57 29 223
134 254 159 6 5 30 22 52 37 23 15 60 43 81 62 22 19 55 46 73 60 175 133 449
433 575 628 6 9 13 21 18 26 25 36 97 148 109 172 8 16 33 63 55 104 22 41 55
109 72 150 18 41 36 84 41 95 13 28 35 93 71 205 52 163 57 184 64 235 4 28
13 77 21 110 7 33 19 139 25 235 14 207 0 487 -32 609 -10 41 -19 84 -19 95 0
12 -9 45 -20 74 -11 29 -20 60 -20 69 0 29 -80 233 -133 339 -67 135 -114 211
-221 362 -57 82 -239 304 -305 374 -32 35 -77 86 -99 113 -61 77 -341 346
-446 430 -65 51 -87 69 -119 98 -18 15 -50 42 -72 58 -133 100 -195 144 -235
167 -25 15 -54 34 -64 44 -11 10 -26 18 -33 18 -7 0 -13 4 -13 9 0 5 -9 13
-20 16 -11 3 -26 12 -32 18 -7 7 -29 20 -48 30 -36 18 -137 79 -155 94 -18 15
-280 143 -291 143 -6 0 -21 9 -34 20 -13 11 -30 20 -37 20 -8 0 -26 9 -40 20
-14 11 -33 20 -42 20 -10 0 -26 7 -37 15 -10 8 -24 15 -31 15 -7 0 -37 11 -67
25 -30 14 -62 25 -71 25 -9 0 -29 6 -43 14 -45 22 -125 49 -164 54 -21 2 -42
10 -49 18 -6 8 -24 14 -38 14 -15 0 -58 16 -97 35 -38 19 -82 35 -97 35 -18 0
-37 10 -53 28 -23 23 -32 27 -74 24 -40 -3 -52 0 -67 17 -14 17 -29 21 -75 21
-31 0 -59 -3 -61 -7 -8 -16 6 -93 17 -93 6 0 17 10 24 21 9 15 17 18 24 11 13
-13 2 -32 -18 -32 -8 0 -14 -7 -14 -15 0 -8 -7 -15 -15 -15 -9 0 -18 7 -21 15
-4 8 -12 15 -20 15 -7 0 -16 12 -20 28 -10 47 -13 52 -29 52 -9 0 -15 -9 -15
-24 0 -37 10 -56 31 -56 26 0 25 -44 -1 -70 -11 -11 -20 -31 -20 -45 0 -28
-25 -44 -42 -27 -14 14 -1 62 16 62 16 0 26 21 26 56 0 14 -6 24 -15 24 -18 0
-65 47 -65 65 0 10 11 15 33 15 28 1 87 37 87 55 0 8 -134 5 -148 -4z m333
-111 c0 -7 -6 -15 -12 -17 -8 -3 -13 4 -13 17 0 13 5 20 13 18 6 -3 12 -11 12
-18z m165 -29 c0 -5 -6 -14 -14 -20 -16 -13 -32 2 -21 19 8 12 35 13 35 1z
m-202 -49 c2 -7 -3 -12 -12 -12 -9 0 -16 7 -16 16 0 17 22 14 28 -4z m-80 -40
c2 -7 -3 -12 -12 -12 -9 0 -16 7 -16 16 0 17 22 14 28 -4z m-348 -58 c0 -27 5
-37 20 -41 11 -3 20 -12 20 -19 0 -8 -9 -14 -20 -14 -11 0 -20 6 -20 14 0 7
-9 16 -20 19 -15 4 -20 14 -20 41 0 29 4 36 20 36 16 0 20 -7 20 -36z m468 24
c-6 -18 -28 -21 -28 -4 0 9 7 16 16 16 9 0 14 -5 12 -12z m-268 -38 c0 -12
-28 -25 -36 -17 -9 9 6 27 22 27 8 0 14 -5 14 -10z m150 -5 c0 -8 -7 -15 -15
-15 -8 0 -15 7 -15 15 0 8 7 15 15 15 8 0 15 -7 15 -15z m-80 -40 c0 -8 -7
-15 -15 -15 -8 0 -15 7 -15 15 0 8 7 15 15 15 8 0 15 -7 15 -15z m-80 -40 c0
-8 -7 -15 -15 -15 -8 0 -15 7 -15 15 0 8 7 15 15 15 8 0 15 -7 15 -15z m-110
-34 c0 -14 -18 -23 -30 -16 -6 4 -8 11 -5 16 8 12 35 12 35 0z m80 -41 c0 -5
-9 -10 -20 -10 -11 0 -20 5 -20 10 0 6 9 10 20 10 11 0 20 -4 20 -10z m217
-1022 c-3 -7 -5 -2 -5 12 0 14 2 19 5 13 2 -7 2 -19 0 -25z"/>
<path d="M8847 18665 c-8 -18 11 -31 25 -17 11 11 3 32 -12 32 -4 0 -10 -7
-13 -15z"/>
<path d="M7320 18657 c0 -15 33 -57 44 -57 4 0 6 15 4 33 -2 24 -8 33 -25 35
-15 2 -23 -2 -23 -11z"/>
<path d="M7520 18656 c0 -9 5 -16 10 -16 6 0 10 4 10 9 0 6 -4 13 -10 16 -5 3
-10 -1 -10 -9z"/>
<path d="M7430 18633 c0 -18 5 -33 10 -33 13 0 13 30 0 50 -7 11 -10 7 -10
-17z"/>
<path d="M8774 18626 c-8 -22 3 -33 18 -18 9 9 9 15 0 24 -9 9 -13 7 -18 -6z"/>
<path d="M9000 18602 c0 -34 7 -43 26 -35 8 3 14 18 14 34 0 22 -5 29 -20 29
-15 0 -20 -7 -20 -28z"/>
<path d="M7630 18610 c0 -5 5 -10 10 -10 6 0 10 5 10 10 0 6 -4 10 -10 10 -5
0 -10 -4 -10 -10z"/>
<path d="M8847 18586 c-6 -15 1 -26 15 -26 4 0 8 9 8 20 0 23 -15 27 -23 6z"/>
<path d="M7390 18580 c0 -5 5 -10 10 -10 6 0 10 5 10 10 0 6 -4 10 -10 10 -5
0 -10 -4 -10 -10z"/>
<path d="M7510 18570 c0 -5 5 -10 10 -10 6 0 10 5 10 10 0 6 -4 10 -10 10 -5
0 -10 -4 -10 -10z"/>
<path d="M8696 18553 c-12 -12 -6 -33 9 -33 8 0 15 6 15 14 0 17 -14 28 -24
19z"/>
<path d="M7360 18536 c0 -9 5 -16 10 -16 6 0 10 4 10 9 0 6 -4 13 -10 16 -5 3
-10 -1 -10 -9z"/>
<path d="M7550 18530 c0 -5 5 -10 10 -10 6 0 10 5 10 10 0 6 -4 10 -10 10 -5
0 -10 -4 -10 -10z"/>
<path d="M8565 18500 c-8 -25 3 -62 17 -58 6 2 13 21 15 41 3 28 0 37 -11 37
-8 0 -18 -9 -21 -20z"/>
<path d="M7280 18490 c0 -5 5 -10 10 -10 6 0 10 5 10 10 0 6 -4 10 -10 10 -5
0 -10 -4 -10 -10z"/>
<path d="M7480 18490 c0 -5 5 -10 10 -10 6 0 10 5 10 10 0 6 -4 10 -10 10 -5
0 -10 -4 -10 -10z"/>
<path d="M8660 18460 c0 -11 5 -20 10 -20 6 0 10 9 10 20 0 11 -4 20 -10 20
-5 0 -10 -9 -10 -20z"/>
<path d="M8730 18468 c0 -13 32 -47 58 -62 8 -5 12 0 12 13 0 14 -6 21 -20 21
-13 0 -20 7 -20 20 0 11 -7 20 -15 20 -8 0 -15 -6 -15 -12z"/>
<path d="M7360 18460 c0 -5 5 -10 11 -10 5 0 7 5 4 10 -3 6 -8 10 -11 10 -2 0
-4 -4 -4 -10z"/>
<path d="M8492 18424 c4 -21 22 -23 26 -1 2 10 -3 17 -13 17 -10 0 -15 -6 -13
-16z"/>
<path d="M7320 18420 c0 -5 5 -10 10 -10 6 0 10 5 10 10 0 6 -4 10 -10 10 -5
0 -10 -4 -10 -10z"/>
<path d="M8610 18415 c0 -8 7 -15 15 -15 8 0 15 7 15 15 0 8 -7 15 -15 15 -8
0 -15 -7 -15 -15z"/>
<path d="M7240 18395 c0 -14 5 -25 10 -25 6 0 10 11 10 25 0 14 -4 25 -10 25
-5 0 -10 -11 -10 -25z"/>
<path d="M8412 18384 c4 -21 22 -23 26 -1 2 10 -3 17 -13 17 -10 0 -15 -6 -13
-16z"/>
<path d="M8690 18390 c0 -5 7 -10 15 -10 8 0 15 5 15 10 0 6 -7 10 -15 10 -8
0 -15 -4 -15 -10z"/>
<path d="M7400 18381 c0 -5 5 -13 10 -16 6 -3 10 -2 10 4 0 5 -4 13 -10 16 -5
3 -10 2 -10 -4z"/>
<path d="M7160 18355 c0 -14 5 -25 10 -25 6 0 10 11 10 25 0 14 -4 25 -10 25
-5 0 -10 -11 -10 -25z"/>
<path d="M8495 18350 c-7 -12 49 -72 59 -63 11 12 6 33 -8 33 -7 0 -16 9 -19
20 -5 21 -22 26 -32 10z"/>
<path d="M8570 18345 c0 -8 7 -15 15 -15 8 0 15 7 15 15 0 8 -7 15 -15 15 -8
0 -15 -7 -15 -15z"/>
<path d="M8650 18346 c0 -8 5 -18 10 -21 6 -3 10 3 10 14 0 12 -4 21 -10 21
-5 0 -10 -6 -10 -14z"/>
<path d="M7320 18341 c0 -5 5 -13 10 -16 6 -3 10 -2 10 4 0 5 -4 13 -10 16 -5
3 -10 2 -10 -4z"/>
<path d="M8330 18305 c-10 -13 -55 -15 -279 -16 -146 0 -288 -4 -316 -8 l-50
-7 70 -7 c110 -11 686 -11 715 1 24 9 24 10 5 18 -11 4 -26 15 -32 23 -12 14
-14 14 -27 -1 -16 -22 -30 -23 -46 -3 -7 8 -16 15 -20 15 -4 0 -13 -7 -20 -15z"/>
<path d="M7280 18300 c0 -5 5 -10 10 -10 6 0 10 5 10 10 0 6 -4 10 -10 10 -5
0 -10 -4 -10 -10z"/>
<path d="M7480 18301 c0 -5 5 -13 10 -16 6 -3 10 -2 10 4 0 5 -4 13 -10 16 -5
3 -10 2 -10 -4z"/>
<path d="M8616 18282 c-3 -6 -1 -14 5 -17 15 -10 25 3 12 16 -7 7 -13 7 -17 1z"/>
<path d="M7237 18251 c-6 -26 10 -31 91 -30 71 1 152 15 102 18 -14 0 -36 8
-49 17 -17 12 -26 13 -34 5 -14 -14 -87 -15 -87 -1 0 18 -18 11 -23 -9z"/>
<path d="M6994 18219 c-4 -6 -20 -8 -40 -4 -26 4 -34 2 -34 -8 0 -8 7 -18 16
-21 20 -8 88 -8 108 0 13 5 12 9 -8 25 -28 22 -32 23 -42 8z"/>
<path d="M6792 16390 c0 -19 2 -27 5 -17 2 9 2 25 0 35 -3 9 -5 1 -5 -18z"/>
<path d="M392 9755 c-1 -109 2 -195 7 -200 6 -6 12 -142 15 -304 3 -182 11
-328 20 -385 8 -50 17 -145 20 -211 3 -66 12 -143 21 -170 8 -28 15 -77 15
-110 0 -33 9 -102 20 -154 11 -52 20 -113 20 -137 0 -23 5 -55 11 -71 6 -15
17 -71 25 -123 8 -52 21 -120 29 -150 8 -30 15 -68 15 -85 0 -16 9 -59 20 -93
11 -35 20 -77 20 -94 0 -16 4 -37 9 -46 5 -10 16 -49 25 -87 18 -85 42 -183
61 -250 8 -27 18 -70 24 -95 19 -85 33 -135 52 -176 11 -23 19 -49 19 -58 0
-30 118 -401 140 -438 5 -10 10 -35 10 -56 0 -26 7 -45 20 -57 11 -10 20 -31
20 -46 0 -15 9 -43 19 -61 10 -18 22 -49 26 -68 4 -19 13 -45 21 -57 8 -12 14
-31 14 -41 0 -11 9 -31 20 -45 11 -14 20 -38 20 -54 0 -15 9 -39 20 -53 11
-14 20 -34 20 -45 0 -11 9 -31 20 -45 11 -14 20 -37 20 -51 0 -15 6 -29 14
-32 7 -3 17 -22 20 -43 4 -20 16 -53 27 -73 10 -20 19 -43 19 -51 0 -9 5 -21
11 -27 13 -13 60 -125 55 -131 -9 -8 -56 47 -56 66 0 12 -6 25 -13 29 -8 4
-19 17 -25 28 -10 18 -11 17 -12 -11 0 -19 6 -34 14 -37 8 -3 18 -22 22 -41 3
-20 10 -36 16 -36 5 0 14 -13 19 -30 6 -16 15 -28 20 -25 13 9 49 -18 49 -37
0 -10 4 -18 8 -18 5 0 41 -31 81 -70 40 -38 77 -70 82 -70 4 0 29 -15 55 -32
69 -49 96 -66 124 -80 14 -7 34 -21 44 -30 11 -10 23 -18 28 -18 4 0 33 -17
65 -38 68 -44 62 -40 231 -139 197 -115 263 -152 301 -169 18 -8 38 -20 45
-25 15 -13 98 -56 396 -203 306 -152 329 -163 357 -171 11 -3 27 -12 33 -20 7
-8 21 -15 31 -15 10 0 33 -9 51 -20 18 -11 40 -20 48 -20 8 0 26 -9 40 -20 14
-11 34 -20 45 -20 11 0 31 -9 45 -20 14 -11 34 -20 45 -20 11 0 34 -9 50 -20
17 -11 38 -20 47 -20 10 0 32 -9 50 -20 18 -11 40 -20 48 -20 9 0 33 -9 55
-20 22 -11 45 -20 52 -20 7 0 27 -9 45 -20 18 -11 41 -20 51 -20 9 0 34 -9 54
-20 21 -11 43 -20 50 -20 7 0 30 -9 50 -20 21 -11 47 -20 58 -20 12 0 38 -9
60 -20 22 -11 48 -20 60 -20 11 0 28 -7 38 -15 11 -7 37 -17 60 -21 23 -3 51
-12 62 -20 11 -7 38 -17 60 -23 41 -10 112 -33 175 -55 87 -32 139 -48 190
-60 55 -14 83 -23 175 -57 28 -11 56 -19 63 -19 7 0 38 -9 69 -20 32 -11 69
-20 83 -20 14 -1 43 -9 65 -20 22 -11 48 -19 58 -20 10 0 43 -9 74 -20 32 -11
68 -20 81 -20 13 0 42 -8 65 -19 23 -10 63 -22 89 -25 26 -4 50 -11 53 -16 3
-5 27 -12 53 -15 26 -4 73 -15 105 -26 31 -10 70 -19 85 -19 15 0 37 -7 49
-15 11 -8 47 -17 79 -21 33 -3 69 -13 81 -20 12 -8 48 -17 80 -20 32 -4 67
-12 78 -19 11 -6 46 -15 78 -18 32 -3 69 -13 82 -21 14 -9 40 -16 59 -16 20 0
64 -8 98 -19 102 -30 241 -61 275 -61 18 0 56 -9 85 -20 29 -11 74 -20 99 -20
26 0 66 -9 90 -20 27 -12 66 -20 102 -20 34 0 71 -7 90 -17 18 -9 66 -18 107
-21 41 -3 84 -11 96 -18 11 -8 58 -18 105 -24 46 -5 113 -16 149 -25 36 -8 86
-15 111 -15 26 0 62 -6 80 -14 19 -7 79 -16 135 -20 55 -3 114 -12 130 -20 16
-8 80 -17 143 -21 65 -3 123 -12 135 -19 13 -9 69 -16 144 -19 72 -4 130 -11
138 -18 9 -7 78 -15 173 -20 91 -4 169 -13 182 -20 14 -7 97 -15 211 -19 111
-5 194 -12 202 -19 8 -7 115 -15 282 -21 164 -5 283 -14 304 -22 40 -14 1064
-19 1113 -5 33 9 35 25 5 31 -47 9 -205 37 -258 46 -30 5 -77 16 -105 25 -27
8 -64 15 -81 15 -17 0 -51 7 -75 16 -24 10 -69 20 -99 24 -58 8 -165 33 -241
56 -25 8 -67 19 -95 24 -67 12 -169 39 -224 57 -25 9 -56 17 -70 20 -14 2 -54
13 -90 23 -36 10 -99 29 -140 41 -41 11 -102 30 -135 40 -33 11 -69 19 -80 19
-11 1 -28 7 -38 15 -11 7 -37 17 -59 20 -22 4 -52 13 -66 21 -15 8 -43 17 -62
20 -19 4 -40 10 -45 15 -6 4 -33 13 -60 20 -27 7 -61 18 -75 26 -14 7 -31 13
-38 13 -8 0 -28 6 -45 14 -56 23 -142 56 -149 56 -4 0 -32 11 -62 25 -30 14
-60 25 -66 25 -12 0 -42 12 -125 49 -22 10 -65 28 -95 41 -30 13 -75 32 -100
42 -51 21 -126 56 -152 69 -10 5 -27 14 -38 19 -11 6 -29 15 -40 20 -11 6 -29
15 -40 20 -11 6 -28 14 -37 18 -10 5 -29 15 -43 22 -14 7 -32 16 -40 20 -18 8
-59 30 -80 42 -8 5 -28 15 -45 24 -16 8 -48 26 -70 40 -22 13 -51 29 -65 36
-40 20 -319 208 -380 255 -111 87 -136 110 -255 229 -122 123 -161 167 -228
258 -20 28 -46 61 -55 72 -10 12 -34 46 -52 75 -19 30 -37 56 -40 59 -4 3 -13
19 -22 35 -8 17 -25 48 -38 70 -69 119 -182 355 -197 410 -3 11 -13 38 -23 60
-39 85 -100 274 -100 309 0 9 -7 30 -15 45 -8 16 -17 48 -21 72 -3 24 -12 58
-19 74 -7 17 -16 62 -20 100 -4 39 -13 93 -21 122 -8 28 -18 105 -24 170 -5
65 -14 134 -20 153 -6 19 -12 161 -14 315 -3 231 -1 304 14 415 10 74 19 158
19 185 1 28 7 70 15 95 7 25 17 80 21 124 4 43 13 93 21 112 8 18 14 49 14 68
0 19 9 58 19 88 10 29 23 76 29 103 6 28 18 75 27 105 20 69 13 98 -23 105
-26 6 -75 27 -153 67 -20 10 -47 18 -60 18 -13 0 -37 9 -54 20 -16 11 -36 20
-43 20 -8 0 -25 9 -39 20 -14 11 -36 20 -49 20 -13 0 -24 4 -24 8 0 11 -45 32
-66 32 -9 0 -27 9 -41 20 -14 11 -36 20 -48 20 -12 0 -34 9 -48 20 -14 11 -34
20 -45 20 -11 0 -25 6 -31 14 -7 8 -26 18 -44 22 -17 3 -37 13 -45 21 -8 8
-27 17 -43 20 -15 3 -30 11 -33 19 -3 7 -21 16 -40 19 -19 4 -37 13 -40 21 -3
8 -16 14 -29 14 -14 0 -36 9 -50 20 -14 11 -32 20 -40 20 -7 0 -24 9 -37 20
-13 11 -31 20 -40 20 -10 0 -29 9 -43 20 -14 11 -30 20 -35 20 -9 0 -151 68
-192 91 -8 5 -26 14 -40 19 -14 6 -32 15 -40 20 -8 6 -22 13 -30 16 -31 12
-56 25 -101 53 -25 16 -57 32 -69 36 -13 4 -44 23 -70 41 -26 19 -53 34 -60
34 -6 0 -23 9 -37 20 -14 11 -34 20 -43 20 -10 0 -23 7 -30 15 -6 8 -22 17
-33 21 -12 4 -34 15 -49 25 -14 11 -33 19 -41 19 -9 0 -33 16 -54 35 -21 19
-45 35 -54 35 -8 0 -30 11 -49 25 -19 14 -38 25 -42 25 -12 0 -71 42 -81 58
-4 6 -21 12 -38 12 -17 0 -32 6 -35 15 -3 8 -21 19 -39 25 -18 6 -49 26 -68
45 -20 19 -45 35 -55 35 -11 0 -39 18 -62 40 -23 22 -50 40 -59 40 -10 0 -35
16 -56 36 -36 33 -44 36 -82 30 -26 -3 -43 -2 -43 4 0 6 5 10 10 10 21 0 9 27
-17 40 -31 15 -37 17 -56 19 -18 1 -49 29 -71 63 -15 23 -21 26 -38 17 -15 -8
-23 -6 -37 10 -20 23 -51 28 -51 8 0 -21 22 -37 52 -37 15 0 28 -4 28 -10 0
-6 -50 -10 -130 -10 l-130 0 0 36 c0 31 -3 35 -22 32 -18 -2 -24 -11 -26 -36
-4 -42 -26 -37 -30 6 -5 48 -37 44 -49 -5 -6 -28 -14 -39 -31 -41 -15 -2 -22
2 -22 12 0 9 6 16 14 16 19 0 30 32 14 42 -22 14 -47 9 -58 -12 -12 -23 -50
-27 -50 -5 0 9 9 15 21 15 15 0 19 4 15 16 -3 9 -6 20 -6 25 0 24 -48 6 -80
-31 -33 -38 -38 -40 -92 -40 -57 0 -80 16 -38 27 24 6 27 38 4 47 -27 10 -44
7 -44 -9 0 -19 -7 -19 -27 0 -8 9 -23 15 -32 13 -18 -4 -29 -48 -12 -48 6 0
11 -7 11 -15 0 -8 -9 -15 -20 -15 -16 0 -20 7 -20 34 0 26 -5 36 -20 41 -31
10 -40 -2 -40 -56 0 -27 -4 -49 -10 -49 -5 0 -10 22 -10 49 0 41 -4 51 -20 56
-11 3 -20 13 -20 20 0 19 -17 27 -40 20 -20 -6 -29 -45 -10 -45 6 0 10 -7 10
-15 0 -22 -37 -18 -43 5 -3 11 -12 20 -21 20 -9 0 -16 6 -16 14 0 20 -16 29
-40 21 -20 -6 -29 -45 -10 -45 6 0 10 -7 10 -15 0 -10 -10 -15 -30 -15 -20 0
-30 5 -30 15 0 8 5 15 10 15 6 0 10 9 10 20 0 25 -29 38 -41 19 -5 -8 -9 -9
-9 -4 0 6 -5 3 -10 -5 -9 -13 -12 -13 -21 3 -11 19 -39 23 -39 6 0 -5 -4 -7
-10 -4 -6 3 -10 -3 -10 -14 0 -11 9 -22 20 -26 35 -11 21 -25 -25 -25 -44 0
-60 15 -30 26 20 8 19 43 -1 51 -9 3 -21 -3 -30 -16 -9 -12 -26 -21 -40 -21
-29 0 -31 10 -3 33 11 10 19 23 16 30 -8 26 -38 17 -74 -22 -35 -39 -40 -41
-95 -41 -55 0 -77 13 -43 26 17 7 18 13 7 32 -7 9 -16 10 -41 1 -25 -9 -35 -9
-40 0 -4 6 -15 9 -24 5 -19 -7 -23 -29 -7 -39 17 -10 11 -25 -10 -25 -16 0
-20 7 -20 34 0 31 -3 34 -26 31 -34 -3 -42 -13 -47 -60 -3 -36 -4 -35 -5 12
-1 29 -5 52 -9 52 -21 -3 -32 3 -38 21 -8 24 -24 25 -51 5 -18 -14 -18 -16 -1
-29 23 -18 22 -36 -3 -36 -14 0 -20 7 -20 21 0 11 -4 18 -9 14 -5 -3 -18 6
-29 19 -22 28 -62 31 -62 5 0 -9 7 -22 15 -29 26 -21 17 -30 -30 -30 -49 0
-56 8 -25 28 32 20 26 48 -10 48 -22 0 -30 -4 -30 -18 0 -10 -4 -18 -10 -18
-5 0 -10 8 -10 18 0 14 -8 18 -30 18 -22 0 -30 -4 -30 -18 0 -10 -4 -18 -10
-18 -5 0 -10 8 -10 18 0 14 -8 18 -30 18 -22 0 -30 -4 -30 -18 0 -10 -4 -18
-10 -18 -5 0 -10 8 -10 19 0 23 -32 23 -60 -1 -21 -19 -60 -24 -60 -9 0 5 9
13 20 16 24 8 26 28 5 45 -13 11 -22 8 -53 -21 -20 -19 -38 -37 -40 -41 -5
-11 -42 -10 -42 2 0 5 8 13 18 19 13 8 15 14 6 27 -16 27 -35 29 -41 5 -7 -27
-20 -27 -28 -1 -7 24 -37 26 -55 5 -10 -12 -10 -18 0 -30 7 -8 19 -15 26 -15
8 0 14 -4 14 -10 0 -5 -22 -10 -50 -10 -27 0 -50 5 -50 10 0 6 7 10 15 10 10
0 15 10 15 30 0 24 -4 30 -21 30 -12 0 -23 -8 -26 -20 -3 -11 -9 -20 -13 -20
-5 0 -12 9 -15 20 -4 11 -15 20 -27 20 -11 0 -22 -8 -25 -20 -4 -14 -14 -20
-34 -20 -16 0 -29 5 -29 10 0 6 6 10 14 10 17 0 28 24 20 45 -9 22 -45 19 -51
-5 -3 -11 -12 -20 -19 -20 -8 0 -14 -4 -14 -10 0 -5 -7 -10 -15 -10 -8 0 -15
8 -15 18 0 9 -4 23 -9 31 -15 23 -51 -4 -51 -39 0 -25 -4 -30 -25 -30 -31 0
-31 7 -3 30 19 15 20 20 9 34 -18 22 -28 20 -56 -10 -31 -33 -34 -26 -38 86
-2 47 -4 -1 -5 -105z m29 -68 c-13 -13 -26 -3 -16 12 3 6 11 8 17 5 6 -4 6
-10 -1 -17z m759 -47 c0 -11 -4 -20 -10 -20 -5 0 -10 9 -10 20 0 11 5 20 10
20 6 0 10 -9 10 -20z m160 10 c0 -5 -4 -10 -10 -10 -5 0 -10 5 -10 10 0 6 5
10 10 10 6 0 10 -4 10 -10z m160 -70 c0 -5 -4 -10 -10 -10 -5 0 -10 5 -10 10
0 6 5 10 10 10 6 0 10 -4 10 -10z"/>
<path d="M1930 9660 c0 -11 7 -20 15 -20 8 0 15 -6 15 -12 1 -13 29 30 30 45
0 4 -13 7 -30 7 -23 0 -30 -4 -30 -20z"/>
<path d="M2840 9586 c0 -13 7 -26 15 -30 22 -8 47 4 41 21 -3 8 -6 19 -6 24 0
5 -11 9 -25 9 -20 0 -25 -5 -25 -24z"/>
<path d="M3274 9556 c-8 -21 3 -36 27 -36 15 0 20 6 17 22 -4 27 -35 37 -44
14z"/>
<path d="M3351 9561 c-12 -8 -12 -12 -2 -25 21 -25 53 -21 49 6 -3 25 -25 33
-47 19z"/>
<path d="M1192 5555 c0 -16 2 -22 5 -12 2 9 2 23 0 30 -3 6 -5 -1 -5 -18z"/>
<path d="M1232 5475 c0 -16 2 -22 5 -12 2 9 2 23 0 30 -3 6 -5 -1 -5 -18z"/>
<path d="M1640 4730 c0 -5 9 -10 21 -10 11 0 17 5 14 10 -3 6 -13 10 -21 10
-8 0 -14 -4 -14 -10z"/>
</g>
</svg>
